<svg xmlns="http://www.w3.org/2000/svg" viewBox="0 0 1440 690" role="img" aria-labelledby="title desc">
<title id="title">WorldView / JupyterLite — Geospatial field lab</title><desc id="desc">Original conceptual illustration connecting a globe, a district map, an epidemic curve and extruded columns. Learn to observe, calculate, explain and review. All illustrated marks are synthetic, not live intelligence.</desc>
<defs><radialGradient id="halo"><stop stop-color="#155263"/><stop offset="1" stop-color="#091722"/></radialGradient><linearGradient id="sphere" x1="0" y1="0" x2="1" y2="1"><stop stop-color="#205361"/><stop offset="1" stop-color="#0a2433"/></linearGradient><clipPath id="clip"><circle cx="1110" cy="294" r="206"/></clipPath></defs>
<rect width="1440" height="690" rx="22" fill="#091722"/><ellipse cx="1060" cy="320" rx="400" ry="315" fill="url(#halo)"/>
<g font-family="Segoe UI,Arial,sans-serif"><text x="64" y="73" fill="#67dbd0" font-size="15" letter-spacing="4">THE GEOSPATIAL FIELD LAB</text>
<text x="60" y="158" fill="#f2f7f8" font-size="77" font-weight="700" letter-spacing="-3">WORLDVIEW</text><text x="64" y="210" fill="#a2b8c1" font-size="33" letter-spacing="8">× JUPYTERLITE</text>
<text x="64" y="291" fill="#e0edef" font-size="28">See the pattern.</text><text x="64" y="331" fill="#e0edef" font-size="28">Understand the evidence.</text>
<text x="64" y="387" fill="#91acb9" font-size="17">Emergency operations · Spatial epidemiology</text><text x="64" y="415" fill="#91acb9" font-size="17">Global health · GPT-6 Astra assisted analysis</text>
<rect x="64" y="464" width="181" height="34" rx="17" fill="#193c49"/><text x="83" y="487" fill="#67dbd0" font-size="13">11 EXECUTABLE LABS</text><rect x="258" y="464" width="173" height="34" rx="17" fill="#193c49"/><text x="277" y="487" fill="#67dbd0" font-size="13">2D + 3D + TIME</text>
<circle cx="1110" cy="294" r="207" fill="url(#sphere)" stroke="#44969b" stroke-width="1.5"/>
<g clip-path="url(#clip)" fill="none" stroke="#4b9e9f" stroke-opacity=".36"><ellipse cx="1110" cy="294" rx="45" ry="206"/><ellipse cx="1110" cy="294" rx="105" ry="206"/><ellipse cx="1110" cy="294" rx="164" ry="206"/><ellipse cx="1110" cy="294" rx="202" ry="206"/><ellipse cx="1110" cy="140" rx="135" ry="18"/><ellipse cx="1110" cy="200" rx="183" ry="18"/><ellipse cx="1110" cy="260" rx="203" ry="18"/><ellipse cx="1110" cy="330" rx="202" ry="18"/><ellipse cx="1110" cy="390" rx="182" ry="18"/><ellipse cx="1110" cy="448" rx="135" ry="18"/></g><path d="M956 195 Q1117 95 1268 344 M976 365 Q1075 500 1240 220" stroke="#f4bc65" stroke-width="2" stroke-dasharray="5 8" fill="none"/>
<g fill="#67dbd0" stroke="#b7ffed" stroke-width="2"><circle cx="976" cy="365" r="6"/><circle cx="1240" cy="220" r="6"/><circle cx="956" cy="195" r="6"/><circle cx="1268" cy="344" r="6"/></g>
<rect x="715" y="125" width="228" height="185" rx="10" fill="#102734" stroke="#37616e"/><text x="735" y="155" fill="#9cbac6" font-size="12" letter-spacing="2">COMPARE / PLACE</text><rect x="736" y="172" width="40" height="29" rx="3" fill="#54c9c1" opacity=".83"/><rect x="783" y="172" width="40" height="29" rx="3" fill="#f4bc65" opacity=".83"/><rect x="830" y="172" width="40" height="29" rx="3" fill="#54c9c1" opacity=".83"/><rect x="877" y="172" width="40" height="29" rx="3" fill="#ef806f" opacity=".83"/><rect x="736" y="208" width="40" height="29" rx="3" fill="#f4bc65" opacity=".83"/><rect x="783" y="208" width="40" height="29" rx="3" fill="#ef806f" opacity=".83"/><rect x="830" y="208" width="40" height="29" rx="3" fill="#f4bc65" opacity=".83"/><rect x="877" y="208" width="40" height="29" rx="3" fill="#54c9c1" opacity=".83"/><rect x="736" y="244" width="40" height="29" rx="3" fill="#f4bc65" opacity=".83"/><rect x="783" y="244" width="40" height="29" rx="3" fill="#54c9c1" opacity=".83"/><rect x="830" y="244" width="40" height="29" rx="3" fill="#54c9c1" opacity=".83"/><rect x="877" y="244" width="40" height="29" rx="3" fill="#f4bc65" opacity=".83"/><rect x="734" y="353" width="285" height="151" rx="10" fill="#102734" stroke="#37616e"/><text x="754" y="382" fill="#9cbac6" font-size="12" letter-spacing="2">INVESTIGATE / TIME</text><rect x="755" y="470" width="13" height="9" rx="2" fill="#67dbd0" opacity=".86"/><rect x="775" y="464" width="13" height="15" rx="2" fill="#67dbd0" opacity=".86"/><rect x="795" y="455" width="13" height="24" rx="2" fill="#67dbd0" opacity=".86"/><rect x="815" y="448" width="13" height="31" rx="2" fill="#67dbd0" opacity=".86"/><rect x="835" y="433" width="13" height="46" rx="2" fill="#67dbd0" opacity=".86"/><rect x="855" y="416" width="13" height="63" rx="2" fill="#67dbd0" opacity=".86"/><rect x="875" y="404" width="13" height="75" rx="2" fill="#67dbd0" opacity=".86"/><rect x="895" y="413" width="13" height="66" rx="2" fill="#67dbd0" opacity=".86"/><rect x="915" y="425" width="13" height="54" rx="2" fill="#67dbd0" opacity=".86"/><rect x="935" y="445" width="13" height="34" rx="2" fill="#67dbd0" opacity=".86"/><rect x="955" y="459" width="13" height="20" rx="2" fill="#67dbd0" opacity=".86"/><rect x="975" y="467" width="13" height="12" rx="2" fill="#67dbd0" opacity=".86"/><rect x="1148" y="416" width="214" height="116" rx="10" fill="#102734" stroke="#37616e"/><path d="M1177 510 v-28 l18 -10 18 10 v28 l-18 10Z" fill="#a18acf"/><path d="M1195 472 v48 l18 -10 v-28Z" fill="#735d9d"/><path d="M1227 510 v-64 l18 -10 18 10 v64 l-18 10Z" fill="#a18acf"/><path d="M1245 436 v84 l18 -10 v-64Z" fill="#735d9d"/><path d="M1277 510 v-43 l18 -10 18 10 v43 l-18 10Z" fill="#a18acf"/><path d="M1295 457 v63 l18 -10 v-43Z" fill="#735d9d"/><path d="M64 550 H1376" stroke="#2a4552"/><text x="64" y="599" fill="#67dbd0" font-size="17">01  OBSERVE</text><text x="353" y="599" fill="#67dbd0" font-size="17">02  CALCULATE</text><text x="689" y="599" fill="#67dbd0" font-size="17">03  EXPLAIN</text><text x="1020" y="599" fill="#67dbd0" font-size="17">04  REVIEW</text><text x="64" y="643" fill="#809daa" font-size="13">Inspired by World View · Kevin (Khoa) To · MIT</text><text x="1014" y="643" fill="#809daa" font-size="13">CONCEPTUAL / SYNTHETIC ARTWORK</text></g></svg>